<svg xmlns="http://www.w3.org/2000/svg" width="137.352" height="36" viewBox="0 0 137.352 36"><g fill="#f88" color="#f88" transform="translate(0 4) scale(0.6363637)"><svg width="44" height="44" x="0" y="0" viewBox="0 0 44 44"><path fill="currentColor" fill-rule="evenodd" d="M21.973 29.756l14.787 8.535-9.168 5.28-5.605-3.224-5.563 3.225-9.182-5.281 14.73-8.535zm0-15.005L44 27.454v6.492l-3.52 2.07-18.506-10.675L3.525 36.016l-3.52-2.042v-6.52L21.973 14.75zM21.97 0l22.026 12.689v10.576L21.984 10.591 0 23.294V12.703L21.97 0z"/></svg></g><path fill="#0b0cac" fill-rule="nonzero" d="M6.58 21.67L2.45 21.67L2.45 5.02L0 5.02L0 1.06L9.02 1.06L9.02 5.02L6.58 5.02L6.58 21.67ZM16.61 21.67L11.95 21.67L9.82 4.10L13.42 4.10L14.59 13.54L15.60 4.10L19.27 4.10L20.47 13.54L21.46 4.10L25.42 4.10L23.16 21.67L18.96 21.67L17.71 11.69L16.61 21.67ZM30.98 2.93L26.78 2.93L26.78 0L30.98 0L30.98 2.93ZM30.98 21.67L26.78 21.67L26.78 4.10L30.98 4.10L30.98 21.67ZM36.91 21.67L32.64 21.67L32.64 0.94L36.91 0.94L36.91 21.67ZM42.86 21.67L38.59 21.67L38.59 0.94L42.86 0.94L42.86 21.67ZM44.21 24.60L44.21 21.94L46.22 21.94Q46.66 21.94 46.66 21.58L46.66 21.58Q46.66 21.41 46.63 21.31L46.63 21.31L43.90 4.10L47.90 4.10L48.70 12.67L49.08 17.04L49.54 12.67L50.47 4.10L54.50 4.10L51.24 22.58Q51.07 23.62 50.56 24.11Q50.04 24.60 48.94 24.60L48.94 24.60L44.21 24.60ZM59.14 21.67L55.13 21.67L57.12 1.06L64.10 1.06L66.07 21.67L62.16 21.67L61.87 18.34L59.38 18.34L59.14 21.67ZM60.46 4.56L59.69 15.05L61.56 15.05L60.65 4.56L60.46 4.56ZM67.25 25.18L67.25 4.10L71.52 4.10L71.52 5.04Q72.43 3.91 74.04 3.91L74.04 3.91Q76.08 3.91 76.88 5.28Q77.69 6.65 77.69 9.07L77.69 9.07L77.69 15.58Q77.69 17.64 77.45 18.95Q77.21 20.26 76.39 21.06Q75.58 21.86 73.92 21.86L73.92 21.86Q72.34 21.86 71.52 20.98L71.52 20.98L71.52 25.18L67.25 25.18ZM72.53 18.60Q73.10 18.60 73.27 18.07Q73.44 17.54 73.44 16.54L73.44 16.54L73.44 9.07Q73.44 8.16 73.27 7.68Q73.10 7.20 72.50 7.20L72.50 7.20Q71.52 7.20 71.52 9.02L71.52 9.02L71.52 16.73Q71.52 17.62 71.72 18.11Q71.93 18.60 72.53 18.60L72.53 18.60ZM79.25 25.18L79.25 4.10L83.52 4.10L83.52 5.04Q84.43 3.91 86.04 3.91L86.04 3.91Q88.08 3.91 88.88 5.28Q89.69 6.65 89.69 9.07L89.69 9.07L89.69 15.58Q89.69 17.64 89.45 18.95Q89.21 20.26 88.39 21.06Q87.58 21.86 85.92 21.86L85.92 21.86Q84.34 21.86 83.52 20.98L83.52 20.98L83.52 25.18L79.25 25.18ZM84.53 18.60Q85.10 18.60 85.27 18.07Q85.44 17.54 85.44 16.54L85.44 16.54L85.44 9.07Q85.44 8.16 85.27 7.68Q85.10 7.20 84.50 7.20L84.50 7.20Q83.52 7.20 83.52 9.02L83.52 9.02L83.52 16.73Q83.52 17.62 83.72 18.11Q83.93 18.60 84.53 18.60L84.53 18.60ZM96.07 21.86Q90.86 21.86 90.86 16.58L90.86 16.58L90.89 15.19L95.09 15.19L95.11 17.26Q95.11 17.88 95.35 18.20Q95.59 18.53 96.14 18.53L96.14 18.53Q96.98 18.53 96.98 17.16L96.98 17.16Q96.98 16.15 96.59 15.58Q96.19 15 95.33 14.35L95.33 14.35L93.10 12.62Q91.94 11.74 91.44 10.79Q90.94 9.84 90.94 8.11L90.94 8.11Q90.94 6.77 91.64 5.82Q92.35 4.87 93.53 4.39Q94.70 3.91 96.14 3.91L96.14 3.91Q101.26 3.91 101.26 9L101.26 9L101.26 9.34L96.91 9.34L96.91 8.66Q96.91 8.04 96.71 7.60Q96.50 7.15 96.02 7.15L96.02 7.15Q95.59 7.15 95.36 7.40Q95.14 7.66 95.14 8.09L95.14 8.09Q95.14 9.05 95.88 9.58L95.88 9.58L98.47 11.47Q99.86 12.50 100.61 13.72Q101.35 14.93 101.35 16.78L101.35 16.78Q101.35 19.22 99.96 20.54Q98.57 21.86 96.07 21.86L96.07 21.86Z" transform="translate(36, 7.164)"/></svg>